<svg width="200" height="51" viewBox="0 0 200 51" fill="none" xmlns="http://www.w3.org/2000/svg">
<g clip-path="url(#clip0_52_268)">
<path d="M4.02636 4.09576C4.40234 3.97752 40.2019 3.96598 40.6537 4.08422C40.6621 4.22553 40.6817 4.38415 40.6817 4.53988C40.6817 12.7965 40.6929 21.0531 40.6761 29.3068C40.6705 32.6954 39.5089 35.6629 37.4354 38.2671C35.8304 40.2829 33.872 41.8749 31.7059 43.2043C28.9113 44.9203 25.9259 46.1776 22.7889 47.0572C22.5561 47.1236 22.326 47.1783 22.0735 47.1063C17.9882 45.9671 14.161 44.2627 10.7435 41.6643C8.72051 40.1272 6.99212 38.2988 5.74914 36.0292C4.63242 33.9903 4.01233 31.8014 4.00953 29.4568C3.9955 21.1425 4.00111 12.8282 4.00111 4.51392C4.00111 4.36973 4.01514 4.22553 4.02356 4.09576H4.02636ZM22.3204 4.84269C16.7255 4.84269 11.1279 4.84269 5.53309 4.84269C5.10286 4.84269 4.88682 5.05706 4.88494 5.4858C4.88494 13.3012 4.88494 21.1137 4.88494 28.929C4.88494 29.9759 4.97754 31.0141 5.20761 32.0379C5.66777 34.0912 6.48988 35.9802 7.80862 37.5951C9.55665 39.735 11.6947 41.4192 14.0319 42.8179C16.4309 44.2541 19.0039 45.2807 21.6694 46.0652C22.1296 46.2007 22.5504 46.2007 23.0106 46.0565C26.2597 45.0356 29.3321 43.6196 32.2053 41.7537C34.1357 40.5021 35.8248 38.965 37.1885 37.0789C38.9365 34.6622 39.781 31.9456 39.7726 28.9204C39.7502 21.1367 39.7642 13.3502 39.7642 5.56655C39.7642 4.79654 39.7923 4.84269 39.0627 4.84269C33.482 4.84269 27.9012 4.84269 22.3176 4.84269H22.3204Z" fill="#492E1C"/>
<path d="M29.557 15.2877C29.1081 15.2329 28.8499 15.5271 28.5413 15.827C28.4094 15.5934 28.2832 15.4319 28.2186 15.2502C28.0419 14.7398 27.6967 14.5523 27.1861 14.6014C26.9785 14.6216 26.7652 14.5841 26.4818 14.5725C26.552 14.3707 26.5828 14.2178 26.653 14.0909C26.9364 13.5776 27.2254 13.07 27.5228 12.5682C27.6687 12.3202 27.736 12.0664 27.7304 11.7751C27.7192 10.9965 27.7304 10.215 27.7248 9.4363C27.722 8.89413 27.5789 8.74128 27.0682 8.74128C23.9341 8.7384 20.8 8.7384 17.6659 8.74128C17.1777 8.74128 17.0655 8.86529 17.0627 9.37862C17.057 10.2755 17.0514 11.1753 17.0683 12.0722C17.0739 12.2798 17.144 12.5048 17.2394 12.6922C17.4807 13.1594 17.7585 13.6064 18.0138 14.0678C18.0868 14.2005 18.1317 14.3505 18.1962 14.5033C17.9297 14.6706 17.6771 14.6244 17.447 14.6071C16.9644 14.5696 16.653 14.7542 16.4818 15.2214C16.4145 15.4089 16.2995 15.579 16.2125 15.7376C15.9291 15.7492 15.8533 15.5069 15.6878 15.4117C15.5335 15.3223 15.3399 15.305 15.1407 15.2502C15.1407 15.1032 15.135 14.959 15.1407 14.8177C15.1631 14.437 15.2024 14.0534 15.2136 13.6728C15.2248 13.269 15.0621 13.0585 14.6805 13.1017C14.0324 13.171 13.5133 12.9287 13.011 12.5596C12.6968 12.3289 12.3629 12.127 12.0346 11.9165C11.6755 11.6857 11.2883 11.7492 10.9179 11.8588C10.7131 11.9193 10.612 12.1385 10.6317 12.3577C10.6738 12.8249 10.483 13.2171 10.309 13.6208C10.0705 14.1803 9.92462 14.76 9.98916 15.38C9.99757 15.4492 9.97793 15.5213 9.96671 15.6569C9.69174 15.6626 9.42518 15.6713 9.15863 15.6742C8.28041 15.6799 8.21587 15.7463 8.21587 16.6605C8.21587 16.9691 8.21587 17.2776 8.21587 17.5862C8.21868 17.8919 8.31688 18.1341 8.63675 18.2236C8.78546 18.2639 8.89208 18.336 8.90049 18.5206C8.90891 18.7138 8.81632 18.8321 8.65639 18.8897C8.2776 19.0282 8.19062 19.3165 8.21307 19.6943C8.23271 20.0173 8.22429 20.3432 8.21587 20.6662C8.21026 20.9258 8.30566 21.1132 8.5161 21.2574C8.78826 21.4449 9.0492 21.6525 9.31295 21.8544C9.32137 21.863 9.32417 21.8803 9.34943 21.9553C9.18949 21.9986 9.03517 22.0447 8.87524 22.0822C8.30005 22.2206 8.23551 22.2956 8.19904 22.9128C8.15976 23.5357 8.1794 24.1471 8.40947 24.7383C8.44595 24.8306 8.45717 24.9315 8.49084 25.0815C7.98579 25.1363 7.5088 25.1247 6.99814 25.0872C6.98131 24.8998 6.95605 24.7441 6.95605 24.5854C6.95605 18.9647 6.95605 13.3411 6.95605 7.72038C6.95605 7.63098 6.95605 7.54446 6.96447 7.45506C6.97289 7.30222 7.04865 7.20705 7.20297 7.20128C7.31801 7.19551 7.43305 7.19263 7.54528 7.19263C17.4358 7.19263 27.3264 7.19263 37.2141 7.19263C37.2702 7.19263 37.3292 7.19263 37.3853 7.19263C37.7893 7.20416 37.8118 7.23012 37.8202 7.65694C37.8202 7.73192 37.8202 7.80401 37.8202 7.879C37.8202 13.3988 37.8202 18.9157 37.8202 24.4355C37.8202 24.6373 37.8005 24.8392 37.7893 25.0872C37.2478 25.1305 36.7399 25.1218 36.1675 25.093C36.218 24.9027 36.2489 24.7527 36.2994 24.6085C36.5183 23.9971 36.5099 23.3655 36.4537 22.734C36.4173 22.3331 36.2938 22.2062 35.9066 22.1082C35.7186 22.0591 35.5278 22.0159 35.2332 21.9438C35.5531 21.7015 35.7775 21.5025 36.0272 21.3526C36.3471 21.1565 36.4818 20.8912 36.4565 20.5134C36.4369 20.1904 36.4481 19.8674 36.4509 19.5415C36.4537 19.2848 36.3696 19.083 36.1451 18.9532C36.0834 18.9186 36.0216 18.8753 35.9739 18.8205C35.7972 18.6302 35.8252 18.336 36.0637 18.2409C36.3724 18.114 36.4509 17.8948 36.4622 17.5862C36.4762 17.1882 36.5239 16.7931 36.5435 16.398C36.566 15.8847 36.4032 15.7059 35.8982 15.6799C35.5418 15.6626 35.1827 15.6626 34.8264 15.6511C34.8011 15.6511 34.773 15.628 34.7169 15.605C34.7057 15.5271 34.6692 15.4262 34.6776 15.331C34.7253 14.6648 34.5598 14.0448 34.2792 13.4565C34.1193 13.119 34.0239 12.7787 34.0491 12.3952C34.0716 12.052 33.878 11.8357 33.5497 11.8011C33.1485 11.755 32.7697 11.7723 32.4161 12.0549C32.0346 12.3606 31.5912 12.5826 31.1872 12.8624C30.9375 13.0354 30.6793 13.119 30.3819 13.0931C30.2669 13.0844 30.1518 13.0873 30.0396 13.0931C29.658 13.1104 29.5402 13.2546 29.5486 13.641C29.5598 14.1688 29.5486 14.6965 29.5486 15.2964L29.557 15.2877Z" fill="#492E1C"/>
<path d="M22.3425 26.0677C22.6427 26.0677 22.9429 26.062 23.2432 26.0677C23.5742 26.0764 23.5995 26.0966 23.664 26.4369C23.8352 27.3165 24.0007 28.1961 24.1691 29.0785C24.9715 33.2919 25.7768 37.5082 26.5709 41.7245C26.6887 42.3474 26.843 42.3157 26.1275 42.581C25.0108 42.9934 23.8801 43.3683 22.7577 43.7605C22.4772 43.8585 22.1994 43.8557 21.9188 43.7547C20.7432 43.3366 19.5647 42.9299 18.3919 42.5031C17.9822 42.3531 17.9878 42.3301 18.072 41.8888C18.7791 38.1657 19.489 34.4397 20.196 30.7166C20.4654 29.3035 20.7347 27.8875 21.0069 26.4744C21.0827 26.0822 21.0911 26.0764 21.4839 26.0706C21.7701 26.0649 22.0563 26.0706 22.3425 26.0706V26.0677Z" fill="#492E1C"/>
<path d="M18.0273 9.70445C18.1985 9.68714 18.3359 9.66695 18.4762 9.66407C18.9055 9.6583 19.3348 9.6583 19.7641 9.66407C20.2383 9.66695 20.2523 9.68137 20.2551 10.1515C20.2579 10.6071 20.2523 11.0628 20.2579 11.5184C20.2636 11.8847 20.2972 11.9164 20.6592 11.9193C20.8135 11.9193 20.965 11.902 21.1642 11.8904C21.1754 11.6424 21.1923 11.429 21.1951 11.2127C21.2007 10.8003 21.1979 10.3879 21.2007 9.97553C21.2007 9.81115 21.2484 9.67561 21.4336 9.67272C22.1294 9.66119 22.8281 9.62658 23.58 9.70156V11.8126C23.9055 11.977 24.1805 11.9337 24.5144 11.8645V9.79096C24.8848 9.63235 26.2877 9.61504 26.7562 9.7477C26.7675 9.86018 26.7899 9.98995 26.7927 10.1168C26.7983 10.5148 26.7731 10.9128 26.8011 11.3079C26.8348 11.8126 26.7254 12.2596 26.4448 12.6806C26.2035 13.044 26.0211 13.4506 25.7798 13.814C25.5974 14.088 25.5525 14.3677 25.5525 14.6849C25.5582 17.863 25.5553 21.0411 25.5525 24.2191C25.5525 24.917 25.6059 24.894 24.9016 24.894C24.8146 24.894 24.7304 24.8911 24.6435 24.8882C24.4863 24.8824 24.4134 24.7873 24.405 24.6344C24.3993 24.5162 24.3965 24.3979 24.3965 24.2826C24.3965 23.3395 24.3348 22.3936 24.4106 21.4592C24.5312 19.9163 22.974 19.1665 21.9358 19.3742C21.1362 19.5357 20.2102 20.124 20.2523 21.4304C20.2832 22.3994 20.2607 23.3713 20.2579 24.3431C20.2579 24.5017 20.2411 24.6604 20.2299 24.8536H19.1609C19.1496 24.6315 19.1328 24.4469 19.1328 24.2595C19.1328 21.067 19.1272 17.8745 19.1384 14.6792C19.1384 14.2351 19.0683 13.8457 18.8214 13.4737C18.5885 13.1219 18.4005 12.7383 18.1844 12.3749C18.0526 12.1558 17.9908 11.925 17.9964 11.6655C18.0077 11.1666 17.9964 10.6648 17.9992 10.1659C17.9992 10.0217 18.0161 9.88036 18.0273 9.70445Z" fill="#492E1C"/>
<path d="M37.7667 26.134C37.7892 26.1888 37.8116 26.2148 37.8116 26.2436C37.8369 28.2566 37.9547 30.2811 37.3318 32.2393C37.2028 32.643 37.0512 33.041 36.9081 33.4419C36.852 33.6005 36.7707 33.7331 36.5743 33.7302C35.9009 33.7216 35.2303 33.7187 34.5569 33.7101C34.5316 33.7101 34.5064 33.6841 34.4362 33.6495C34.425 33.5226 34.4025 33.3669 34.4025 33.2111C34.3969 32.594 34.411 31.9739 34.3969 31.3568C34.3773 30.5032 33.8133 29.6697 33.0894 29.3929C32.2168 29.0612 31.2207 29.289 30.6427 29.9581C30.2948 30.3618 30.1321 30.8377 30.1293 31.3741C30.1237 31.9768 30.1293 32.5796 30.1265 33.1852C30.1265 33.3438 30.1124 33.5024 30.1012 33.7129C29.5092 33.7504 28.948 33.762 28.3476 33.7014C28.3363 33.514 28.3167 33.3582 28.3167 33.1996C28.3139 32.5969 28.3195 31.9941 28.3139 31.3885C28.2971 30.134 27.5311 29.3063 26.3133 29.2573C25.9626 29.2429 25.6091 29.3035 25.1994 29.3352C24.9637 28.3056 24.7477 27.2357 24.5625 26.1629C24.9245 26.0504 37.3234 26.0331 37.7695 26.1369L37.7667 26.134Z" fill="#492E1C"/>
<path d="M7.00657 26.1371C7.46393 26.0362 19.745 26.0477 20.1322 26.1544C19.9162 27.2214 19.703 28.2914 19.4813 29.3901C18.9762 29.2402 18.5301 29.2315 18.07 29.2777C17.2338 29.3584 16.3163 30.4572 16.3668 31.3252C16.4033 31.9424 16.3752 32.5624 16.3724 33.1796C16.3724 33.3382 16.3584 33.4968 16.3472 33.6987C15.7944 33.7564 15.2754 33.7333 14.7086 33.716C14.6917 33.5285 14.6665 33.3757 14.6665 33.22C14.6609 32.6028 14.6693 31.9828 14.6637 31.3656C14.6497 30.238 13.7967 29.3209 12.6996 29.2459C11.3893 29.1594 10.4914 29.9525 10.4072 31.3022C10.3736 31.8299 10.396 32.3606 10.3932 32.8912C10.3932 33.0094 10.3932 33.1277 10.3932 33.243C10.3848 33.7016 10.3708 33.7218 9.93586 33.7275C9.5206 33.7333 9.10533 33.7275 8.69007 33.7275C8.51892 33.7275 8.34496 33.7189 8.1738 33.7275C7.97459 33.7362 7.84832 33.6468 7.78379 33.4564C7.67436 33.1363 7.55371 32.822 7.4527 32.499C7.0683 31.2502 6.98413 29.9583 6.96449 28.6605C6.95326 27.954 6.95888 27.2474 6.96449 26.5408C6.96449 26.3995 6.99255 26.2582 7.00657 26.1313V26.1371Z" fill="#492E1C"/>
<path d="M36.2764 34.7281C36.1698 34.93 36.1025 35.0713 36.0239 35.2039C35.0727 36.7959 33.8073 38.085 32.3651 39.1981C30.9958 40.2537 29.5031 41.0929 27.9515 41.8283C27.8758 41.8658 27.7916 41.8888 27.6541 41.9407C27.6064 41.7764 27.5503 41.635 27.5222 41.488C27.0986 39.3683 26.6777 37.2515 26.2568 35.1318C25.979 33.7331 25.7012 32.3345 25.4235 30.9387C25.3056 30.3503 25.3842 30.2638 25.9818 30.209C26.4139 30.1715 26.7983 30.1975 27.1014 30.5897C27.2809 30.8233 27.3763 31.0627 27.3763 31.3539C27.3763 32.1643 27.3763 32.9718 27.3763 33.7822C27.3763 33.9148 27.3707 34.0475 27.3819 34.1802C27.4128 34.5118 27.5447 34.6445 27.8673 34.6906C27.9375 34.6993 28.0104 34.6993 28.0806 34.6993C28.8382 34.6993 29.5985 34.705 30.3561 34.6993C30.8499 34.6964 31.0548 34.483 31.0604 33.9696C31.0688 33.1304 31.0884 32.2912 31.0576 31.452C31.0183 30.4542 31.7927 30.0821 32.626 30.2263C33.075 30.3042 33.4509 30.8291 33.4566 31.3337C33.4678 32.173 33.4594 33.0122 33.4622 33.8514C33.4622 34.6387 33.5211 34.6993 34.2927 34.7021C34.7949 34.7021 35.2944 34.7021 35.7966 34.7021C35.9313 34.7021 36.0688 34.7194 36.2764 34.7339V34.7281Z" fill="#492E1C"/>
<path d="M17.1551 41.9638C15.0619 41.0121 13.1483 39.8874 11.4452 38.4051C10.2612 37.3755 9.23422 36.2018 8.41211 34.7627C8.57485 34.7339 8.67866 34.7021 8.78248 34.6993C9.32681 34.6935 9.87114 34.6993 10.4127 34.6964C10.5277 34.6964 10.6427 34.6993 10.755 34.6906C11.1787 34.6589 11.3105 34.5205 11.3218 34.0879C11.3302 33.7216 11.3218 33.3525 11.3246 32.9833C11.3246 32.4527 11.3386 31.9249 11.3246 31.3943C11.3049 30.731 11.8605 30.186 12.4946 30.2004C13.2269 30.2177 13.7039 30.6358 13.7179 31.377C13.7348 32.2451 13.7179 33.1131 13.7235 33.9812C13.7235 34.558 13.847 34.6877 14.3997 34.6935C15.1152 34.7021 15.8307 34.6993 16.5462 34.6935C17.1775 34.6877 17.3066 34.5551 17.3094 33.9177C17.3122 33.0929 17.3431 32.2681 17.301 31.4462C17.2617 30.7195 17.8369 30.1888 18.4991 30.1975C19.2679 30.209 19.3717 30.3042 19.223 31.0915C18.5776 34.5291 17.9323 37.9638 17.2841 41.4015C17.2533 41.5572 17.214 41.7129 17.1551 41.9609V41.9638Z" fill="#492E1C"/>
<path d="M26.5097 19.0944C27.0232 18.8233 27.3094 19.1492 27.6265 19.4376C27.8453 19.2646 28.0614 19.1175 28.2494 18.9416C28.5552 18.6561 28.4093 17.9899 28.0221 17.8572C27.6433 17.7274 27.2589 17.6092 26.8801 17.4765C26.5013 17.3439 26.4957 17.3324 26.4929 16.9055C26.4901 16.5681 26.4957 16.2278 26.4929 15.8904C26.4929 15.6741 26.5799 15.5588 26.7987 15.5645C26.8998 15.5674 26.998 15.5703 27.099 15.5645C27.2982 15.5501 27.4216 15.6424 27.4862 15.8356C27.6377 16.3057 28.0445 16.5306 28.3953 16.7988C28.6029 16.9574 28.8975 16.8911 29.0715 16.6258C29.2791 16.3057 29.5457 16.248 29.8795 16.2653C30.1938 16.2826 30.508 16.274 30.8223 16.2653C31.26 16.2538 31.3863 16.1269 31.4059 15.6914C31.4284 15.1838 31.3779 15.1002 30.9093 14.9041C30.4379 14.7051 30.4155 14.659 30.5473 14.0822C31.2123 14.0678 31.6556 13.5573 32.2 13.2545C32.4749 13.1017 32.7331 12.92 33.0445 12.7239C33.168 13.566 33.6955 14.2033 33.7572 15.0137C33.7937 15.4924 33.7376 15.9048 33.4093 16.2797C33.0165 16.7267 32.6629 17.2083 32.2954 17.6813C32.0092 18.0504 32.0148 18.1571 32.2897 18.5263C32.6517 19.0137 32.8958 19.5501 32.9716 20.1701C33.0333 20.6777 33.2016 20.8017 33.6814 20.7613C34.1107 20.7267 34.3212 20.4239 34.2033 20C34.1556 19.8298 34.1023 19.6597 34.0322 19.501C33.8498 19.0915 33.8302 18.6589 33.7965 18.2148C33.7544 17.664 33.9789 17.2458 34.2679 16.8392C34.3296 16.7527 34.439 16.6546 34.5316 16.6489C34.8683 16.6258 35.2078 16.6402 35.5866 16.6402C35.6006 16.8479 35.6119 17.0065 35.6203 17.1622C35.6287 17.3439 35.5726 17.4737 35.3818 17.5227C35.0451 17.6092 34.9441 17.8688 34.9385 18.1889C34.9356 18.3792 34.9441 18.5724 34.9356 18.7628C34.9188 19.1377 35.0479 19.403 35.3846 19.5876C35.7129 19.7692 35.7325 20.3057 35.4323 20.5508C35.118 20.8075 34.7869 21.041 34.4643 21.2833C34.2566 21.439 34.1416 21.6351 34.1416 21.9178C34.1444 22.4253 34.2286 22.5637 34.7 22.7166C34.9188 22.7858 35.1377 22.8579 35.3565 22.9214C35.5305 22.9733 35.6343 23.0771 35.595 23.2732C35.4996 23.7635 35.4098 24.2537 35.2948 24.7382C35.2471 24.9459 35.1208 25.1073 34.8739 25.1045C34.1304 25.0987 33.3868 25.0987 32.6433 25.0929C32.604 25.0929 32.5619 25.0699 32.4862 25.0468C32.4693 24.9487 32.4413 24.8363 32.4357 24.7267C32.4216 24.2768 32.4834 24.2162 32.907 24.1989C33.0221 24.196 33.1371 24.1989 33.2493 24.1787C33.5075 24.1268 33.6702 23.925 33.6927 23.6539C33.7151 23.3885 33.6169 23.2328 33.3504 23.1175C33.2718 23.0829 33.1932 23.0454 33.1091 23.0223C32.8649 22.9502 32.719 22.7945 32.6854 22.5291C32.6489 22.235 32.4862 22.0619 32.214 21.9639C31.8885 21.8485 31.5771 21.6986 31.2572 21.5746C30.9289 21.4477 30.6876 21.5803 30.6231 21.9293C30.5586 22.2725 30.5894 22.6041 30.8083 22.8954C30.8868 22.9992 30.9626 23.1117 31.058 23.1953C31.4845 23.5789 31.5322 24.0778 31.4845 24.6084C31.4508 24.9776 31.3302 25.1016 30.9654 25.1045C30.1938 25.1102 29.4194 25.1102 28.6478 25.1045C28.2914 25.1016 28.1624 24.9545 28.1708 24.5911C28.1764 24.3258 28.2662 24.2133 28.5271 24.2047C28.8694 24.1903 29.2146 24.2105 29.5569 24.1903C29.9553 24.1701 30.1349 23.9567 30.1208 23.5702C30.1124 23.3568 30.0339 23.2097 29.8346 23.1261C29.5569 23.0108 29.2847 22.8781 29.0069 22.7599C28.8246 22.682 28.76 22.5522 28.746 22.3503C28.7123 21.9293 28.7881 21.5746 29.1388 21.2977C29.3633 21.1189 29.5513 20.8911 29.7533 20.6834C30.017 20.4152 30.0226 20.2163 29.7785 19.925C29.7308 19.8702 29.6803 19.8183 29.6298 19.7664C29.3352 19.4607 29.2061 19.4347 28.8442 19.6683C28.3335 19.9971 27.8369 20.3403 27.329 20.6719C26.911 20.943 26.4929 20.7123 26.4845 20.1961C26.4761 19.8183 26.4957 19.4434 26.5013 19.0973L26.5097 19.0944Z" fill="#492E1C"/>
<path d="M14.2285 14.0909C14.2594 14.6735 14.2509 14.6879 13.7824 14.9042C13.398 15.0801 13.2128 15.7492 13.4737 16.101C13.5467 16.1962 13.715 16.2538 13.8441 16.2625C14.1864 16.2856 14.5315 16.2856 14.8738 16.2683C15.1797 16.251 15.435 16.3202 15.6314 16.5768C15.6903 16.6576 15.7745 16.7239 15.8559 16.7816C16.013 16.897 16.1842 16.9085 16.3329 16.7787C16.6668 16.4874 17.082 16.2712 17.2195 15.7924C17.2672 15.6309 17.385 15.5646 17.5478 15.5675C17.7302 15.5704 17.9153 15.5675 18.1286 15.5675C18.1538 15.7146 18.1903 15.8241 18.1931 15.9337C18.2015 16.2712 18.2015 16.6115 18.1931 16.9489C18.1875 17.3209 18.1763 17.3411 17.848 17.4622C17.4861 17.5977 17.1213 17.7362 16.7509 17.84C16.4283 17.9323 16.3497 18.1774 16.2908 18.46C16.2375 18.7311 16.3497 18.907 16.5629 19.0512C16.7285 19.1637 16.88 19.2964 17.0287 19.4117C17.3037 19.2646 17.5478 19.1147 17.8031 19.0051C17.8929 18.9676 18.0192 19.0224 18.1875 19.0397C18.1875 19.4982 18.2128 19.9366 18.1791 20.3692C18.1538 20.6951 17.6993 20.894 17.4187 20.7152C16.9333 20.4038 16.4563 20.0779 15.9765 19.7578C15.8671 19.6857 15.7605 19.6107 15.6426 19.5559C15.4715 19.4752 15.3059 19.5011 15.1656 19.6395C15.0534 19.752 14.9356 19.8645 14.8374 19.9885C14.6438 20.2336 14.655 20.4096 14.8766 20.646C15.1572 20.9402 15.4462 21.2257 15.7268 21.5199C15.912 21.716 16.0158 22.3245 15.8867 22.5552C15.8362 22.6475 15.7268 22.7167 15.6286 22.7657C15.3845 22.8868 15.132 22.9906 14.8822 23.1031C14.5961 23.2329 14.5231 23.3713 14.5568 23.6885C14.5876 23.9683 14.7392 24.1413 15.0282 24.173C15.2695 24.199 15.5136 24.1846 15.7577 24.1903C15.8446 24.1903 15.9288 24.1903 16.0158 24.1903C16.4255 24.2019 16.5265 24.3172 16.476 24.7239C16.4395 25.0094 16.3749 25.0901 16.0972 25.093C15.2807 25.1017 14.467 25.1017 13.6505 25.093C13.3559 25.0901 13.2296 24.9748 13.2016 24.672C13.1539 24.1384 13.1482 23.6193 13.5944 23.2069C13.9086 22.9157 14.1275 22.5609 14.077 22.0822C14.0237 21.5862 13.7739 21.416 13.3222 21.6093C13.0051 21.7448 12.6965 21.9034 12.3766 22.0274C12.1297 22.1226 11.9922 22.2841 12.0091 22.5523C12.0231 22.8032 11.9109 22.933 11.6836 22.9878C11.5714 23.0137 11.4647 23.057 11.3581 23.0973C11.0551 23.2098 10.9597 23.354 10.9821 23.6511C11.0046 23.9452 11.1729 24.1327 11.4676 24.1759C11.5938 24.1932 11.7257 24.1817 11.852 24.1903C12.1718 24.2105 12.2251 24.2596 12.242 24.5826C12.2476 24.6691 12.2448 24.7585 12.2392 24.8479C12.2335 24.9056 12.2139 24.9603 12.1971 25.0353C12.1157 25.0555 12.0343 25.093 11.9558 25.093C11.2543 25.0988 10.5529 25.093 9.8514 25.1017C9.61571 25.1017 9.47542 24.995 9.39685 24.7787C9.22009 24.274 9.16397 23.7491 9.16678 23.2156C9.16678 23.0599 9.25095 22.9762 9.38563 22.9272C9.60168 22.8522 9.82053 22.7772 10.0338 22.6936C10.6146 22.4687 10.7549 21.7909 10.2975 21.3526C10.0254 21.093 9.72794 20.8594 9.43052 20.6287C9.2285 20.473 9.14994 20.2827 9.15555 20.026C9.15836 19.7982 9.22009 19.6251 9.4193 19.5155C9.66621 19.3829 9.74478 19.1608 9.73916 18.8897C9.73636 18.6994 9.73916 18.5062 9.73916 18.3158C9.73916 17.9582 9.67744 17.6439 9.30987 17.4795C9.23973 17.4478 9.1808 17.3238 9.16958 17.2373C9.14713 17.0671 9.16397 16.8883 9.16397 16.7124C9.5147 16.5595 9.84298 16.6345 10.1657 16.6374C10.2162 16.6374 10.2891 16.6691 10.3144 16.7124C10.55 17.0902 10.8699 17.4132 10.8783 17.9179C10.8867 18.5148 10.8419 19.0916 10.5949 19.6395C10.5641 19.7059 10.5529 19.7809 10.5192 19.8443C10.2667 20.3432 10.5557 20.8594 11.2711 20.7499C11.4928 20.7152 11.6527 20.6085 11.6668 20.3634C11.7173 19.6107 12.0736 18.9964 12.4917 18.4081C12.7021 18.114 12.6881 18.0476 12.4552 17.7592C12.0371 17.2373 11.6275 16.7066 11.201 16.1904C11.0439 16.0001 10.9821 15.7953 10.9597 15.5502C10.898 14.8667 11.0383 14.238 11.3413 13.6324C11.4704 13.3757 11.5545 13.096 11.6724 12.7903C11.7397 12.8191 11.8435 12.8537 11.9333 12.9114C12.3851 13.1969 12.8396 13.4767 13.2773 13.7795C13.5214 13.9496 13.7683 14.0765 14.0714 14.0477C14.1219 14.0419 14.178 14.0736 14.2257 14.088L14.2285 14.0909Z" fill="#492E1C"/>
<path d="M21.1956 24.8363C21.1956 24.421 21.1956 24.0836 21.1956 23.749C21.1956 22.9415 21.1928 22.134 21.1956 21.3294C21.1984 20.8449 21.3892 20.5652 21.8297 20.3979C22.1776 20.2682 22.5312 20.2682 22.8763 20.4095C23.2719 20.571 23.4936 20.8594 23.4908 21.3179C23.4851 22.3734 23.4908 23.4318 23.4879 24.4873C23.4879 24.8622 23.4571 24.8911 23.0979 24.8939C22.5985 24.8997 22.0991 24.8997 21.5996 24.8939C21.479 24.8939 21.3555 24.8622 21.1956 24.8391V24.8363Z" fill="#492E1C"/>
<path d="M16.7871 23.181C16.8068 22.6994 16.832 22.1658 16.8573 21.5775C17.1042 21.6986 17.2978 21.8515 17.5026 21.8774C17.6962 21.9034 17.9066 21.7938 18.1115 21.7448C18.2097 22.0332 18.2377 24.4268 18.1451 25.018C17.9122 25.1593 17.6625 25.1103 17.3763 25.0613C17.3483 24.7325 17.3707 24.3864 17.2781 24.075C17.1911 23.7808 16.9807 23.5241 16.7871 23.1838V23.181Z" fill="#492E1C"/>
<path d="M27.3404 25.0412C27.245 25.0672 27.1917 25.0902 27.1356 25.096C26.5435 25.1537 26.4902 25.1046 26.4902 24.5048C26.4902 23.7261 26.4902 22.9475 26.4902 22.1717C26.4902 22.0304 26.5043 21.8862 26.5127 21.7391C26.941 21.8372 27.3619 21.7987 27.7753 21.6238C27.8202 22.1602 27.8651 22.6851 27.9156 23.2907C27.3404 23.6483 27.2815 24.3087 27.3404 25.0441V25.0412Z" fill="#492E1C"/>
<path d="M52.926 21.1776C51.8036 21.1776 50.8252 20.9335 49.9906 20.4418C49.1596 19.95 48.5121 19.2586 48.0553 18.3638C47.5948 17.4691 47.3682 16.419 47.3682 15.21C47.3682 14.0009 47.6164 12.9656 48.1128 12.0783C48.6092 11.1909 49.2927 10.4995 50.1633 10.0114C51.0338 9.52336 52.0375 9.27563 53.167 9.27563C53.7606 9.27563 54.3253 9.33849 54.8649 9.4642C55.4045 9.58991 55.8686 9.7489 56.2607 9.93747L56.07 11.7048C55.6564 11.52 55.2067 11.3684 54.7246 11.2463C54.2426 11.128 53.7282 11.0652 53.1814 11.0652C52.3109 11.0652 51.5986 11.2463 51.0374 11.6124C50.4762 11.9784 50.0625 12.4702 49.7927 13.0914C49.523 13.7125 49.3863 14.4113 49.3863 15.1915C49.3863 15.9716 49.5229 16.7259 49.7963 17.3582C50.0697 17.9904 50.4834 18.4859 51.0374 18.8445C51.5914 19.2032 52.2893 19.3843 53.1346 19.3843C53.3685 19.3843 53.6311 19.3658 53.9225 19.3289C54.2138 19.2919 54.5016 19.2327 54.7822 19.1588V16.822H53.1742V15.21H56.6276V20.3124C56.2247 20.5527 55.7031 20.7561 55.0592 20.9261C54.4189 21.0962 53.7066 21.1813 52.926 21.1813V21.1776Z" fill="#492E1C"/>
<path d="M64.6174 21.1775C63.5562 21.1775 62.6137 20.9335 61.7863 20.4417C60.959 19.95 60.3078 19.2623 59.8366 18.3712C59.3654 17.4801 59.1279 16.4338 59.1279 15.2284C59.1279 14.0231 59.3654 12.9767 59.8366 12.0856C60.3078 11.1945 60.959 10.5031 61.7863 10.0151C62.6137 9.52333 63.5562 9.2793 64.6174 9.2793C65.6786 9.2793 66.6211 9.52333 67.4485 10.0151C68.2759 10.5068 68.927 11.1945 69.3982 12.0856C69.8695 12.9767 70.1069 14.0231 70.1069 15.2284C70.1069 16.4338 69.8695 17.4801 69.3982 18.3712C68.927 19.2623 68.2759 19.9537 67.4485 20.4417C66.6211 20.9335 65.6786 21.1775 64.6174 21.1775ZM64.6174 19.3362C65.398 19.3362 66.0491 19.1587 66.5743 18.8001C67.0996 18.4415 67.4953 17.9534 67.7579 17.3322C68.0241 16.7111 68.1572 16.0086 68.1572 15.2247C68.1572 14.4409 68.0241 13.7384 67.7579 13.1172C67.4917 12.496 67.0996 12.008 66.5743 11.6493C66.0491 11.2907 65.398 11.1132 64.6174 11.1132C63.8368 11.1132 63.1785 11.2907 62.6533 11.6493C62.1281 12.008 61.7324 12.496 61.4698 13.1172C61.2036 13.7384 61.0705 14.4409 61.0705 15.2247C61.0705 16.0086 61.2036 16.7111 61.4698 17.3322C61.736 17.9534 62.1281 18.4415 62.6533 18.8001C63.1785 19.1587 63.8332 19.3362 64.6174 19.3362Z" fill="#492E1C"/>
<path d="M73.0742 20.9482V9.5011H77.0277C78.0709 9.5011 78.8659 9.73403 79.4055 10.2036C79.9451 10.6732 80.2185 11.3609 80.2185 12.2705C80.2185 12.9286 80.0746 13.4906 79.7904 13.9528C79.5062 14.4149 79.0745 14.7403 78.5025 14.9252L78.5817 14.5813C79.4307 14.7514 80.071 15.0953 80.5062 15.6129C80.9415 16.1305 81.1574 16.8219 81.1574 17.6797C81.1574 18.7002 80.8372 19.4989 80.2005 20.0757C79.5638 20.6525 78.6824 20.9409 77.5637 20.9409H73.0778L73.0742 20.9482ZM74.9196 14.097H76.7651C77.2759 14.097 77.668 13.9897 77.9486 13.7753C78.2292 13.5608 78.3695 13.1837 78.3695 12.6513C78.3695 12.1189 78.2292 11.7269 77.9486 11.5162C77.668 11.3054 77.2723 11.1982 76.7651 11.1982H74.9196V14.1007V14.097ZM74.9196 19.2474H77.3226C77.9018 19.2474 78.3623 19.1143 78.7076 18.8518C79.0529 18.5893 79.2256 18.1456 79.2256 17.5245C79.2256 16.87 79.0457 16.4189 78.686 16.1675C78.3263 15.9161 77.873 15.7904 77.3262 15.7904H74.9232V19.2474H74.9196Z" fill="#492E1C"/>
<path d="M84.0107 20.9482V9.5011H85.8561V20.9482H84.0107Z" fill="#492E1C"/>
<path d="M89.4814 20.9482V9.5011H96.489V11.298H91.3592V14.0711H95.3774V15.868H91.3592V19.1476H96.6401V20.9445H89.4814V20.9482Z" fill="#492E1C"/>
<path d="M99.583 20.9482V9.5011H103.49C104.26 9.5011 104.932 9.62681 105.511 9.87454C106.091 10.1223 106.537 10.5031 106.857 11.0133C107.177 11.5236 107.335 12.178 107.335 12.9767C107.335 13.7753 107.163 14.4556 106.821 14.9622C106.479 15.4687 106.015 15.868 105.425 16.1638L107.929 20.9482H105.814L103.619 16.6223H101.464V20.9482H99.5866H99.583ZM101.461 15.0028H103.141C103.954 15.0028 104.533 14.8217 104.878 14.4593C105.227 14.097 105.4 13.6274 105.4 13.0506C105.4 12.4405 105.227 11.9673 104.882 11.6271C104.536 11.2906 103.972 11.1206 103.188 11.1206H101.461V15.0028Z" fill="#492E1C"/>
<path d="M110.551 20.9482V9.5011H112.422L117.447 17.3174V9.5011H119.3V20.9482H117.764L112.393 12.6661V20.9482H110.548H110.551Z" fill="#492E1C"/>
<path d="M127.764 21.1775C126.703 21.1775 125.76 20.9335 124.933 20.4417C124.105 19.95 123.454 19.2623 122.983 18.3712C122.512 17.4801 122.274 16.4338 122.274 15.2284C122.274 14.0231 122.512 12.9767 122.983 12.0856C123.454 11.1945 124.105 10.5031 124.933 10.0151C125.76 9.52333 126.703 9.2793 127.764 9.2793C128.825 9.2793 129.768 9.52333 130.595 10.0151C131.422 10.5068 132.073 11.1945 132.545 12.0856C133.016 12.9767 133.253 14.0231 133.253 15.2284C133.253 16.4338 133.016 17.4801 132.545 18.3712C132.073 19.2623 131.422 19.9537 130.595 20.4417C129.768 20.9335 128.825 21.1775 127.764 21.1775ZM127.764 19.3362C128.545 19.3362 129.196 19.1587 129.721 18.8001C130.246 18.4415 130.642 17.9534 130.904 17.3322C131.171 16.7111 131.304 16.0086 131.304 15.2247C131.304 14.4409 131.171 13.7384 130.904 13.1172C130.638 12.496 130.246 12.008 129.721 11.6493C129.196 11.2907 128.545 11.1132 127.764 11.1132C126.983 11.1132 126.325 11.2907 125.8 11.6493C125.275 12.008 124.879 12.496 124.616 13.1172C124.35 13.7384 124.217 14.4409 124.217 15.2247C124.217 16.0086 124.35 16.7111 124.616 17.3322C124.882 17.9534 125.275 18.4415 125.8 18.8001C126.325 19.1587 126.98 19.3362 127.764 19.3362Z" fill="#492E1C"/>
<path d="M145.672 20.9482V9.5011H149.823C150.888 9.5011 151.838 9.73034 152.665 10.1851C153.496 10.6399 154.147 11.2943 154.618 12.1484C155.09 13.0025 155.327 14.0267 155.327 15.2247C155.327 16.4226 155.09 17.4505 154.618 18.3046C154.147 19.1587 153.496 19.8131 152.665 20.2679C151.834 20.7227 150.888 20.9519 149.823 20.9519H145.672V20.9482ZM147.517 19.2474H149.823C150.593 19.2474 151.233 19.0811 151.748 18.752C152.262 18.4229 152.651 17.9571 152.913 17.3544C153.176 16.7517 153.305 16.0418 153.305 15.2247C153.305 14.4075 153.176 13.6976 152.913 13.095C152.651 12.4923 152.262 12.0264 151.748 11.6974C151.233 11.3683 150.593 11.2019 149.823 11.2019H147.517V19.2474Z" fill="#492E1C"/>
<path d="M158.547 20.9482V9.5011H165.554V11.298H160.425V14.0711H164.443V15.868H160.425V19.1476H165.706V20.9445H158.547V20.9482Z" fill="#492E1C"/>
<path d="M178.813 20.9482V9.5011H180.659V19.2474H185.433V20.9482H178.813Z" fill="#492E1C"/>
<path d="M191.62 11.3572H192.113L188.821 20.9482H186.99L190.958 9.5011H192.764L196.743 20.9482H194.904L191.62 11.3572ZM194.214 18.0939H189.512V16.4189H194.214V18.0939Z" fill="#492E1C"/>
<path d="M53.0447 39.291C51.9295 39.291 50.9475 39.0469 50.0949 38.5552C49.2424 38.0634 48.5733 37.372 48.0912 36.4809C47.6092 35.5899 47.3682 34.5435 47.3682 33.3382C47.3682 32.1328 47.6164 31.0864 48.1092 30.1954C48.602 29.3043 49.2819 28.6129 50.1453 28.1248C51.0086 27.6331 51.9979 27.389 53.1131 27.389C53.6922 27.389 54.2282 27.4519 54.7282 27.5813C55.2247 27.7107 55.6599 27.8697 56.0233 28.0583L55.8254 29.8478C55.4225 29.6555 54.998 29.4966 54.552 29.3708C54.1059 29.2451 53.6203 29.1786 53.0951 29.1786C52.2785 29.1786 51.595 29.3598 51.0482 29.7221C50.4978 30.0844 50.0841 30.5799 49.8071 31.2085C49.5301 31.837 49.3898 32.5469 49.3898 33.3382C49.3898 34.1294 49.5265 34.8393 49.7999 35.4679C50.0733 36.0964 50.4798 36.5919 51.0266 36.9542C51.5698 37.3166 52.2461 37.4977 53.0519 37.4977C53.5915 37.4977 54.0843 37.4386 54.5268 37.3166C54.9693 37.1982 55.4045 37.0319 55.829 36.8248L56.0269 38.6254C55.6132 38.8214 55.1563 38.9804 54.6599 39.1024C54.1599 39.2244 53.6275 39.2873 53.0519 39.2873L53.0447 39.291Z" fill="#492E1C"/>
<path d="M58.2324 39.0618V27.6146H60.0778V39.0618H58.2324Z" fill="#492E1C"/>
<path d="M67.5199 39.291C66.4767 39.291 65.6134 39.0803 64.9299 38.6625C64.25 38.2446 63.7392 37.6494 63.4082 36.884C63.0773 36.1186 62.9082 35.2165 62.9082 34.1738V27.6183H64.7536V33.6747C64.7536 34.2145 64.7896 34.7173 64.8651 35.1795C64.9407 35.6417 65.0738 36.0484 65.268 36.3959C65.4623 36.7435 65.7429 37.0171 66.1062 37.2094C66.4731 37.4016 66.9444 37.5015 67.5235 37.5015C68.1027 37.5015 68.5812 37.4053 68.9445 37.2094C69.3078 37.0171 69.5884 36.7435 69.7827 36.3959C69.9769 36.0484 70.1136 35.6417 70.1856 35.1721C70.2575 34.7062 70.2935 34.2071 70.2935 33.671V27.6146H72.1389V34.1701C72.1389 35.2128 71.9734 36.1149 71.6389 36.8803C71.3043 37.6457 70.7971 38.2373 70.1172 38.6588C69.4373 39.0803 68.574 39.2873 67.5271 39.2873L67.5199 39.291Z" fill="#492E1C"/>
<path d="M74.9668 39.0618V27.6146H79.1181C80.1829 27.6146 81.1326 27.8439 81.9636 28.2986C82.7945 28.7534 83.4456 29.4079 83.9169 30.262C84.3881 31.1161 84.6256 32.1402 84.6256 33.3382C84.6256 34.5362 84.3881 35.564 83.9169 36.4144C83.4456 37.2685 82.7945 37.923 81.9636 38.3778C81.1326 38.8325 80.1865 39.0618 79.1181 39.0618H74.9668ZM76.8122 37.361H79.1181C79.8879 37.361 80.5282 37.1946 81.0426 36.8655C81.5571 36.5364 81.9456 36.0706 82.2082 35.4679C82.4708 34.8652 82.6003 34.1553 82.6003 33.3382C82.6003 32.5211 82.4672 31.8112 82.2082 31.2085C81.9492 30.6058 81.5571 30.1399 81.0426 29.8109C80.5282 29.4818 79.8879 29.3154 79.1181 29.3154H76.8122V37.361Z" fill="#492E1C"/>
<path d="M90.2052 29.4745H90.6981L87.4065 39.0656H85.5791L89.5469 27.6184H91.3528L95.3314 39.0656H93.4932L90.2088 29.4745H90.2052ZM92.7989 36.2112H88.0972V34.5362H92.7989V36.2112Z" fill="#492E1C"/>
<path d="M97.1113 39.0618V27.6146H101.263C102.327 27.6146 103.277 27.8439 104.108 28.2986C104.939 28.7534 105.59 29.4079 106.061 30.262C106.533 31.1161 106.77 32.1402 106.77 33.3382C106.77 34.5362 106.533 35.564 106.061 36.4144C105.59 37.2685 104.939 37.923 104.108 38.3778C103.277 38.8325 102.331 39.0618 101.263 39.0618H97.1113ZM98.9567 37.361H101.263C102.032 37.361 102.673 37.1946 103.187 36.8655C103.702 36.5364 104.09 36.0706 104.353 35.4679C104.615 34.8652 104.745 34.1553 104.745 33.3382C104.745 32.5211 104.612 31.8112 104.353 31.2085C104.094 30.6058 103.702 30.1399 103.187 29.8109C102.673 29.4818 102.032 29.3154 101.263 29.3154H98.9567V37.361Z" fill="#492E1C"/>
<path d="M113.138 39.0618V27.6146H117.289C118.354 27.6146 119.303 27.8439 120.134 28.2986C120.965 28.7534 121.617 29.4079 122.088 30.262C122.559 31.1161 122.796 32.1402 122.796 33.3382C122.796 34.5362 122.559 35.564 122.088 36.4144C121.617 37.2685 120.965 37.923 120.134 38.3778C119.303 38.8325 118.357 39.0618 117.289 39.0618H113.138ZM114.983 37.361H117.289C118.059 37.361 118.699 37.1946 119.214 36.8655C119.728 36.5364 120.116 36.0706 120.379 35.4679C120.642 34.8652 120.771 34.1553 120.771 33.3382C120.771 32.5211 120.638 31.8112 120.379 31.2085C120.12 30.6058 119.728 30.1399 119.214 29.8109C118.699 29.4818 118.059 29.3154 117.289 29.3154H114.983V37.361Z" fill="#492E1C"/>
<path d="M125.109 39.0618V27.6146H132.117V29.4116H126.987V32.1846H131.005V33.9815H126.987V37.2611H132.268V39.0618H125.109Z" fill="#492E1C"/>
<path d="M138.082 39.0618L139.611 27.6146H141.139L143.938 32.9943L146.704 27.6146H148.248L149.766 39.0618H147.841L146.751 30.1917L147.251 30.2915L143.935 36.5475L140.593 30.3026L141.093 30.2139L140.003 39.0692H138.078L138.082 39.0618Z" fill="#492E1C"/>
<path d="M152.129 39.0618V27.6146H159.136V29.4116H154.007V32.1846H158.025V33.9816H154.007V37.2612H159.288V39.0618H152.129ZM154.269 26.62V25.5589L157.341 24.006V25.6735L154.269 26.62Z" fill="#492E1C"/>
<path d="M160.32 39.0618L164.177 33.2236L160.471 27.6146H162.54L165.205 31.6707L167.871 27.6146H169.94L166.234 33.2236L170.091 39.0618H168.015L165.205 34.795L162.4 39.0618H160.324H160.32Z" fill="#492E1C"/>
<path d="M171.806 39.0618V27.6146H173.651V39.0618H171.806Z" fill="#492E1C"/>
<path d="M181.631 39.291C180.515 39.291 179.533 39.0469 178.681 38.5552C177.828 38.0634 177.159 37.372 176.677 36.4809C176.195 35.5899 175.954 34.5435 175.954 33.3382C175.954 32.1328 176.202 31.0864 176.695 30.1954C177.188 29.3043 177.868 28.6129 178.731 28.1248C179.595 27.6331 180.584 27.389 181.699 27.389C182.278 27.389 182.814 27.4519 183.314 27.5813C183.811 27.7107 184.246 27.8697 184.609 28.0583L184.411 29.8478C184.008 29.6555 183.584 29.4966 183.138 29.3708C182.692 29.2451 182.206 29.1786 181.681 29.1786C180.864 29.1786 180.181 29.3598 179.634 29.7221C179.084 30.0844 178.67 30.5799 178.393 31.2085C178.116 31.837 177.976 32.5469 177.976 33.3382C177.976 34.1294 178.112 34.8393 178.386 35.4679C178.659 36.0964 179.066 36.5919 179.613 36.9542C180.156 37.3166 180.832 37.4977 181.638 37.4977C182.177 37.4977 182.67 37.4386 183.113 37.3166C183.555 37.1982 183.99 37.0319 184.415 36.8248L184.613 38.6254C184.199 38.8214 183.742 38.9804 183.246 39.1024C182.746 39.2244 182.213 39.2873 181.638 39.2873L181.631 39.291Z" fill="#492E1C"/>
<path d="M191.476 39.291C190.415 39.291 189.472 39.0469 188.645 38.5552C187.817 38.0634 187.166 37.372 186.695 36.4809C186.224 35.5899 185.986 34.5435 185.986 33.3382C185.986 32.1328 186.224 31.0864 186.695 30.1954C187.166 29.3043 187.817 28.6129 188.645 28.1248C189.472 27.6368 190.415 27.389 191.476 27.389C192.537 27.389 193.48 27.6331 194.307 28.1248C195.134 28.6166 195.785 29.3043 196.257 30.1954C196.728 31.0864 196.965 32.1328 196.965 33.3382C196.965 34.5435 196.728 35.5899 196.257 36.4809C195.785 37.372 195.134 38.0634 194.307 38.5552C193.48 39.0469 192.537 39.291 191.476 39.291ZM191.476 37.4534C192.256 37.4534 192.908 37.2759 193.433 36.9172C193.958 36.5623 194.354 36.0705 194.616 35.4494C194.879 34.8282 195.016 34.1257 195.016 33.3419C195.016 32.558 194.882 31.8555 194.616 31.2343C194.35 30.6132 193.958 30.1251 193.433 29.7665C192.908 29.4078 192.256 29.2303 191.476 29.2303C190.695 29.2303 190.037 29.4078 189.512 29.7665C188.986 30.1251 188.591 30.6132 188.328 31.2343C188.062 31.8555 187.929 32.558 187.929 33.3419C187.929 34.1257 188.062 34.8282 188.328 35.4494C188.594 36.0705 188.99 36.5586 189.512 36.9172C190.037 37.2759 190.692 37.4534 191.476 37.4534Z" fill="#492E1C"/>
</g>
<defs>
<clipPath id="clip0_52_268">
<rect width="193" height="43" fill="white" transform="translate(4 4)"/>
</clipPath>
</defs>
</svg>