<svg width="220" height="55" viewBox="0 0 220 55" fill="none" xmlns="http://www.w3.org/2000/svg">
<path d="M73.2017 30.4342C73.4909 30.8726 73.8895 31.0706 74.4504 31.0845C75.2145 31.1036 75.7017 30.3543 75.7017 30.3543L88.363 14.1343C89.405 13.0437 90.4392 13.925 90.4392 13.925C91.4404 14.9669 90.6936 15.9272 90.6936 15.9272L87.8628 19.5488V19.5705C87.362 20.0852 87.336 20.8968 87.8029 21.4424V21.4485L90.652 25.0588L99.6254 13.6463L96.04 9.07579L95.3775 8.2136C94.7948 7.37747 93.4958 7.18385 93.4958 7.18385H88.1225C87.2812 7.18199 86.4795 7.54077 85.9204 8.16932L70.8711 27.476L73.2017 30.4342Z" fill="#ffffff"/>
<path d="M72.5653 20.5335L68.9652 15.9222C68.2323 14.7422 69.3012 13.8983 69.3012 13.8983C70.6454 13.1168 71.4252 14.3237 71.4252 14.3237L74.4036 18.1484L77.9291 13.6065L73.8653 8.37786C73.3222 7.56864 72.388 7.11135 71.4157 7.17879H66.5642C65.0108 7.17879 64.343 8.14516 64.343 8.14516L60.0508 13.5926L69.0242 25.0537L72.5653 20.5335Z" fill="#ffffff"/>
<path d="M86.4393 24.4685C86.4393 24.4685 86.0251 23.8269 85.228 23.8399C84.397 23.8521 84.0609 24.4043 84.0609 24.4043L71.2702 40.8292C70.2352 41.9684 69.1193 41.0523 69.1193 41.0523C68.1181 40.0061 68.9396 39.0362 68.9396 39.0362L71.8051 35.3522V35.3331C72.3052 34.8183 72.3308 34.0073 71.8642 33.462V33.4551L69.0151 29.8457L60.0156 41.3866L65.0355 47.7397L72.9235 47.7605L88.7934 27.4701L86.4393 24.4685Z" fill="#ffffff"/>
<path d="M87.1016 34.3652L90.7313 39.0356C91.5675 40.1956 90.5125 41.0517 90.5125 41.0517C89.1231 41.9877 88.2661 40.5898 88.2661 40.5898L85.2269 36.7312L81.7031 41.2748L86.7881 47.7816L94.6163 47.7625L99.6353 41.3287L90.6419 29.8416L87.1016 34.3652Z" fill="#ffffff"/>
<path fill-rule="evenodd" clip-rule="evenodd" d="M95.9277 27.4931C95.9277 25.5126 97.5602 23.9003 99.567 23.9003H99.5661C101.574 23.9003 103.207 25.5126 103.207 27.4931C103.207 29.4736 101.574 31.086 99.567 31.086C97.5602 31.086 95.9277 29.4736 95.9277 27.4931ZM97.7692 28.2446C98.0737 28.9659 98.7835 29.4321 99.5665 29.425C100.628 29.4193 101.485 28.5549 101.481 27.4932C101.481 26.7102 101.009 26.0047 100.284 25.7067C99.5603 25.4088 98.728 25.5772 98.1768 26.1334C97.6256 26.6895 97.4646 27.5233 97.7692 28.2446Z" fill="#ffffff"/>
<path fill-rule="evenodd" clip-rule="evenodd" d="M83.454 3.59287C83.454 5.57337 81.8207 7.18574 79.8131 7.18574C77.8063 7.18574 76.1738 5.57337 76.1738 3.59287C76.1738 1.61236 77.8054 0 79.8131 0C81.8207 0 83.454 1.61236 83.454 3.59287ZM81.6137 2.83869C81.3078 2.11754 80.5967 1.65247 79.8133 1.66127C78.7532 1.6694 77.8991 2.53308 77.903 3.59316C77.903 4.3765 78.3761 5.08226 79.1008 5.37997C79.8254 5.67767 80.6581 5.50837 81.2089 4.95134C81.7597 4.39432 81.9196 3.55985 81.6137 2.83869Z" fill="#ffffff"/>
<path fill-rule="evenodd" clip-rule="evenodd" d="M60.0082 23.886C62.0149 23.886 63.6482 25.4983 63.6482 27.4789C63.6482 29.4602 62.0158 31.0717 60.0082 31.0717C58.0005 31.0717 56.3672 29.4594 56.3672 27.4789C56.3672 25.4983 58.0014 23.886 60.0082 23.886ZM60.0161 25.5825C58.961 25.5763 58.0997 26.4247 58.0902 27.4796C58.0868 28.5415 58.9437 29.4057 60.0057 29.4115C61.0608 29.411 61.9166 28.5571 61.9195 27.5021C61.9223 26.4472 61.0711 25.5887 60.0161 25.5825Z" fill="#ffffff"/>
<path fill-rule="evenodd" clip-rule="evenodd" d="M0 3.57092H41.8203V31.456C41.8203 46.7617 20.9201 51.374 20.9201 51.374H20.9002C20.9002 51.374 0 46.7617 0 31.456V3.57092ZM40.8028 31.4555V4.58804H1.01795V31.4555C1.01795 34.7193 2.04607 37.7322 4.08146 40.4117C5.73392 42.5919 8.05153 44.5654 10.97 46.2776C15.4186 48.8885 19.9053 50.0824 20.9134 50.3316C21.9251 50.0798 26.4474 48.8729 30.8994 46.2507C33.8057 44.5385 36.1138 42.5667 37.7593 40.3891C39.7791 37.7174 40.8028 34.7107 40.8028 31.4555Z" fill="#ffffff"/>
<path d="M25.9758 12.4969V9.93555H23.3412V12.3267H22.3122V9.93555H19.5987V12.3267H18.5697V9.93555H15.8926V12.4987L17.1951 14.744C17.2404 14.8233 17.2641 14.9131 17.2637 15.0045L17.275 26.726H18.5445L18.5306 22.5149C18.5306 21.5208 19.6595 20.6169 20.9021 20.6169C22.1447 20.6169 23.2735 21.5208 23.2735 22.5132L23.2865 26.726H24.589L24.5847 22.2796C24.5847 22.2597 24.5847 22.2379 24.5847 22.218V20.0161C24.5847 20.0039 24.5847 19.9926 24.5847 19.9822V18.3768C24.5843 18.3742 24.5843 18.3716 24.5847 18.369V17.6674V15.0036C24.5846 14.9119 24.6092 14.822 24.6559 14.7431L25.9758 12.4969Z" fill="#ffffff"/>
<path d="M16.2508 27.0025V23.117L15.7828 23.3975C15.611 23.5012 15.3944 23.4951 15.2288 23.3819L14.6635 22.9955C14.6648 23.012 14.6648 23.0285 14.6635 23.045L14.6435 24.5419C14.642 24.6974 14.5697 24.8437 14.4473 24.9395C14.5062 24.9591 14.5614 24.9884 14.6105 25.0263C15.2948 25.576 15.3451 26.3626 15.1984 27.0016L16.2508 27.0025Z" fill="#ffffff"/>
<path d="M20.9039 21.6537C20.1145 21.6537 19.5605 22.2155 19.5605 22.5219L19.5736 26.7365H22.2585L22.2463 22.5219C22.2463 22.2163 21.6932 21.6537 20.9039 21.6537Z" fill="#ffffff"/>
<path d="M5.22675 27.0017C5.06547 26.6239 4.95453 26.2266 4.89678 25.82C4.81658 25.294 4.78259 24.7621 4.79518 24.2302C4.80369 24.012 4.94874 23.8228 5.15728 23.7579L6.28613 23.4106L5.01227 22.5128C4.87628 22.4164 4.79539 22.2601 4.79518 22.0934V20.6686C4.79491 20.477 4.90139 20.3012 5.07131 20.2127L5.56801 19.9523V19.4678L5.1156 19.2854C4.92259 19.2054 4.79611 19.0177 4.79431 18.8088V17.0957C4.7943 16.8133 5.02168 16.5837 5.30403 16.5808L6.89136 16.566C6.86271 16.1458 6.85489 15.5719 6.95649 15.0961C7.09455 14.4536 7.46013 13.7563 7.63466 13.4464L7.54783 12.8516C7.52648 12.7044 7.57022 12.5551 7.66766 12.4427C7.76666 12.332 7.90818 12.2688 8.05668 12.269H8.91286C9.01032 12.2691 9.10576 12.2968 9.18813 12.3489L11.28 13.6747H12.2412C12.3815 13.6748 12.5156 13.7322 12.6127 13.8334C12.7097 13.9347 12.7612 14.0712 12.7553 14.2113L12.6832 15.861C12.6763 15.9973 12.6161 16.1255 12.5156 16.2179H13.1547C13.2942 16.2189 13.4275 16.2758 13.5246 16.3759L13.8155 16.6781L14.037 16.5096L14.4086 15.7282C14.4937 15.5487 14.6745 15.4341 14.8732 15.4338H16.2382V15.1404L14.9357 12.895C14.8892 12.8162 14.8648 12.7261 14.8654 12.6346V9.42199C14.8654 9.28551 14.9196 9.15464 15.0162 9.05822C15.1128 8.9618 15.2438 8.90774 15.3803 8.90797H26.4951C26.779 8.90797 27.0091 9.13811 27.0091 9.42199V12.6346C27.0094 12.7262 26.9848 12.8163 26.9379 12.895L25.605 15.1404V15.4295H26.9588C27.1575 15.4296 27.3384 15.5442 27.4233 15.7238L27.795 16.5053L28.0156 16.6737L28.3082 16.3716C28.4044 16.2712 28.5373 16.2141 28.6764 16.2135H29.3163C29.2162 16.121 29.1563 15.9929 29.1496 15.8567L29.0767 14.207C29.0708 14.0669 29.1223 13.9304 29.2193 13.8291C29.3163 13.7278 29.4505 13.6705 29.5907 13.6704H30.5529L32.6447 12.3446C32.7267 12.2925 32.8219 12.2648 32.9191 12.2647H33.7753C33.9242 12.2647 34.0657 12.3293 34.1633 12.4417C34.2609 12.5541 34.305 12.7033 34.2841 12.8508L34.1973 13.4455C34.371 13.7563 34.7374 14.4536 34.8746 15.0952C34.9779 15.571 34.9684 16.1449 34.9406 16.5652L36.5279 16.5799C36.8104 16.5828 37.038 16.8123 37.0385 17.0948V18.8079C37.0387 19.0172 36.912 19.2057 36.7181 19.2846L36.2666 19.4669V19.9514L36.7615 20.2119C36.9316 20.3003 37.0384 20.476 37.0385 20.6677V22.0925C37.0386 22.2591 36.9581 22.4154 36.8223 22.5119L35.5519 23.4106L36.6764 23.7579C36.8848 23.8228 37.0295 24.0121 37.0376 24.2302C37.0513 24.7621 37.0176 25.2941 36.9369 25.82C36.8786 26.2267 36.7671 26.624 36.6052 27.0017H38.4756H38.4999V7.12891H3.36328V27.0017H5.22675Z" fill="#ffffff"/>
<path d="M27.2284 25.0266C27.2769 24.9876 27.3323 24.9582 27.3916 24.9397C27.269 24.8438 27.1963 24.6977 27.1937 24.5421L27.1746 23.0408C27.1737 23.0241 27.1737 23.0073 27.1746 22.9905L26.6101 23.3769C26.4442 23.4907 26.2271 23.4975 26.0544 23.3942L25.6133 23.1277V26.9984H26.6362C26.4894 26.3576 26.5398 25.5718 27.2249 25.0231" fill="#ffffff"/>
<path d="M34.0592 37.6294C33.9227 37.6294 33.7918 37.5751 33.6954 37.4786C33.599 37.382 33.5449 37.251 33.5451 37.1145V33.7544C33.5451 33.5043 33.3941 33.1943 33.1613 32.9651C32.8816 32.6869 32.4988 32.5375 32.1046 32.5527C31.3161 32.5657 30.8429 33.177 30.7769 33.7795V37.1145C30.7763 37.2508 30.7224 37.3814 30.6266 37.4783C30.5304 37.5753 30.3994 37.6297 30.2628 37.6294H27.2054C27.069 37.6294 26.9382 37.5751 26.8419 37.4785C26.7456 37.3819 26.6917 37.2509 26.6922 37.1145V33.7544C26.6922 33.5043 26.5402 33.1943 26.3075 32.9651C26.0278 32.6874 25.6455 32.538 25.2516 32.5527C24.9213 32.5558 24.6043 32.6829 24.3633 32.9087L26.8763 45.7251C30.413 44.157 34.6045 41.6009 36.8622 37.6312L34.0592 37.6294Z" fill="#ffffff"/>
<path d="M25.885 46.0442L22.3526 28.0312H19.4871L15.9564 46.0512C15.9513 46.0757 15.9443 46.0998 15.9355 46.1232C18.3877 47.1295 20.3789 47.6409 20.9337 47.8155C21.4973 47.6418 23.4754 47.1304 25.9102 46.1336C25.8996 46.1054 25.8912 46.0764 25.885 46.0468" fill="#ffffff"/>
<path d="M17.4839 32.8906C17.243 32.6768 16.9326 32.5577 16.6104 32.5555H16.5826C16.1984 32.5493 15.8279 32.6979 15.5545 32.9679C15.3218 33.1971 15.1707 33.5062 15.1707 33.7563V37.1182C15.1707 37.2544 15.1165 37.3851 15.0201 37.4814C14.9236 37.5776 14.7929 37.6316 14.6566 37.6313H11.5966C11.3127 37.6309 11.0826 37.4012 11.0817 37.1173V33.7815C11.0165 33.178 10.5433 32.5659 9.75483 32.5555H9.72617C9.34197 32.5493 8.97143 32.6979 8.69805 32.9679C8.46534 33.1971 8.31424 33.5062 8.31424 33.7563V37.1182C8.31424 37.2544 8.26006 37.3851 8.16363 37.4814C8.0672 37.5776 7.93644 37.6316 7.80019 37.6313H5.01367C7.27136 41.588 11.4446 44.1433 14.9736 45.7114L17.4839 32.8906Z" fill="#ffffff"/>
<path d="M38.4792 28.031H23.4004L24.1411 31.808C24.4767 31.6285 24.8503 31.5317 25.2309 31.5258C25.8998 31.5103 26.5467 31.7655 27.0249 32.2334C27.459 32.6589 27.7195 33.2276 27.7195 33.7546V36.6017H29.7462V33.7546C29.7462 33.739 29.7462 33.7242 29.7462 33.7077C29.8533 32.4873 30.8656 31.5451 32.0908 31.5258C32.7603 31.5085 33.4081 31.7639 33.8856 32.2334C34.3198 32.6589 34.576 33.2276 34.576 33.7546V36.6017H37.3859C38.1339 34.9593 38.5164 33.1741 38.507 31.3695V28.0284C38.4989 28.0289 38.4907 28.0289 38.4826 28.0284" fill="#ffffff"/>
<path d="M7.28945 36.6036V33.7566C7.28945 33.2295 7.54995 32.6608 7.98413 32.2345C8.46228 31.7687 9.10717 31.5138 9.77465 31.5269C10.9973 31.5502 12.0055 32.4916 12.1122 33.7097C12.1131 33.7253 12.1131 33.741 12.1122 33.7566V36.6036H14.1398V33.7566C14.1398 33.2295 14.4003 32.6608 14.8345 32.2345C15.3137 31.7676 15.9604 31.5126 16.6294 31.5269C17.0024 31.5328 17.3688 31.6262 17.6992 31.7995L18.4372 28.0312H3.36541V31.3697C3.3559 33.1752 3.73931 34.9611 4.48904 36.6036H7.28945Z" fill="#ffffff"/>
<path d="M8.49872 25.9423H9.33319C9.39602 26.0486 9.43595 26.1669 9.45042 26.2896C9.45042 26.359 9.45737 26.4285 9.46345 26.4988C9.4593 26.6693 9.436 26.8388 9.39398 27.0042H6.47461C6.05259 26.7159 5.84245 25.5733 5.82422 24.6329L7.10242 24.2379C7.31716 24.1695 7.46361 23.9709 7.46539 23.7456V23.2533C7.46577 23.0864 7.38474 22.9299 7.2483 22.8339L5.82509 21.8258V20.9793L6.32091 20.7188C6.49098 20.6305 6.59751 20.4546 6.59704 20.263V19.1229C6.59737 18.9134 6.47067 18.7245 6.27663 18.6454L5.82422 18.4631V17.607L7.17276 17.5939L7.81359 18.6437V20.1084L7.37334 21.4976C7.32347 21.6542 7.3513 21.8251 7.44826 21.9578C7.54521 22.0904 7.69965 22.1688 7.86396 22.1688H8.25298C8.50551 22.1677 8.72013 21.984 8.76009 21.7347C8.79743 21.5072 8.91986 20.8508 9.03448 20.5538C9.12132 20.3246 9.49037 19.8314 9.72134 19.5553C9.88361 19.3612 9.88104 19.078 9.71527 18.8868L7.95079 16.8576C7.91606 16.552 7.85267 15.827 7.96295 15.3139C8.08278 14.7565 8.47006 14.0471 8.60813 13.8205C8.67079 13.7185 8.69568 13.5977 8.67846 13.4792L8.65241 13.2952H8.76617L10.8571 14.6193C10.9395 14.6714 11.0349 14.6991 11.1324 14.6991H11.7055L11.6716 15.4667L10.9978 15.7115C10.793 15.7857 10.657 15.9808 10.6583 16.1986V16.7265C10.6607 17.0085 10.8895 17.2361 11.1715 17.2371L12.9325 17.2432L13.3927 17.719C13.5736 17.9082 13.8681 17.9303 14.0752 17.7702C14.0752 17.7702 14.8758 17.1338 14.9114 17.0591L15.1971 16.4582H16.2235V18.3302C16.2235 18.3302 14.3461 18.9745 14.1907 19.0509C14.0683 19.1117 14.0005 19.6925 14.0222 19.8323C14.044 19.9721 14.0361 20.0285 14.2385 20.1796C14.2385 20.1796 14.7847 20.6137 14.9522 20.6693L15.4976 20.1484L16.2209 20.197V21.9335L15.5262 22.3477L13.3684 20.8716C13.1444 20.7197 12.8412 20.7667 12.6737 20.9793L12.3368 21.4134C12.1713 21.6236 12.1944 21.9254 12.3898 22.108L13.6245 23.2637L13.6124 24.2049L12.3793 24.7475C12.1945 24.8315 12.0752 25.0151 12.0737 25.2181V25.4283C12.0742 25.7123 12.3046 25.9423 12.5886 25.9423H14.0787C14.3392 26.2627 14.235 26.7142 14.1265 27.0024H10.6922C10.5749 26.88 10.5185 26.6638 10.4898 26.4215C10.4898 26.3564 10.4846 26.2896 10.4785 26.2236C10.4716 25.9356 10.4975 25.6478 10.5558 25.3657L11.3547 24.3438C11.4207 24.2601 11.4587 24.1577 11.4632 24.0512L11.4867 23.5606C11.4951 23.3851 11.4132 23.2175 11.2697 23.1161C11.1261 23.0148 10.9407 22.9938 10.7781 23.0605L9.4895 23.5867C9.32103 23.6552 9.20144 23.8078 9.17516 23.9878L9.09874 24.5027L8.35023 24.7284C8.13294 24.7939 7.9841 24.9938 7.98379 25.2207V25.4291C7.98427 25.7131 8.21467 25.9431 8.49872 25.9431" fill="#ffffff"/>
<path d="M33.3368 25.9431H32.5023C32.4399 26.0497 32.4 26.1679 32.3851 26.2904C32.3851 26.3599 32.379 26.4294 32.3729 26.4997C32.3766 26.6702 32.3999 26.8398 32.4424 27.005H35.3643C35.7855 26.7168 35.9956 25.5741 36.0139 24.6338L34.7357 24.2387C34.5209 24.1704 34.3745 23.9718 34.3727 23.7464V23.2541C34.3725 23.0871 34.4539 22.9306 34.5907 22.8348L36.0104 21.8267V20.9802L35.5154 20.7197C35.345 20.6316 35.2381 20.4557 35.2384 20.2638V19.1238C35.2385 18.9141 35.3655 18.7253 35.5597 18.6463L36.0113 18.4639V17.6078L34.6636 17.5948L34.0228 18.6445L34.0184 20.1093L34.4587 21.4985C34.5081 21.655 34.4801 21.8257 34.3833 21.9583C34.2864 22.0908 34.1322 22.1693 33.968 22.1697H33.579C33.3262 22.169 33.1111 21.9852 33.0711 21.7355C33.0337 21.5081 32.9121 20.8516 32.7967 20.5547C32.7098 20.3255 32.3416 19.8323 32.1107 19.5562C31.9484 19.362 31.951 19.0788 32.1167 18.8876L33.8856 16.8576C33.9203 16.552 33.9828 15.827 33.8734 15.3139C33.7536 14.7565 33.3663 14.0471 33.2282 13.8205C33.166 13.7183 33.1409 13.5978 33.157 13.4792L33.1831 13.2952H33.0693L30.9792 14.6201C30.8968 14.6722 30.8014 14.6999 30.7039 14.7H30.13L30.1638 15.4676L30.8385 15.7124C31.043 15.7869 31.1786 15.9819 31.1772 16.1995V16.7274C31.1753 17.0093 30.9467 17.237 30.6649 17.2379L28.9039 17.244L28.4436 17.7198C28.2628 17.909 27.9682 17.9311 27.7611 17.7711C27.7611 17.7711 26.9596 17.1346 26.9249 17.0599L26.6392 16.4591H25.6094V18.3311C25.6094 18.3311 27.4859 18.9753 27.6413 19.0517C27.7646 19.1125 27.8315 19.6934 27.8106 19.8332C27.7898 19.973 27.7959 20.0294 27.5944 20.1805C27.5944 20.1805 27.0465 20.6146 26.8806 20.6702L26.3344 20.1492L25.612 20.1978V21.9344L26.3014 22.3485L28.4601 20.8725C28.6838 20.7193 28.9881 20.7664 29.1548 20.9802L29.4935 21.4143C29.6587 21.6247 29.6353 21.9265 29.4396 22.1089L28.2057 23.2646L28.2179 24.2057L29.4561 24.7554C29.641 24.8393 29.7603 25.0229 29.7618 25.226V25.4361C29.7618 25.5725 29.7075 25.7034 29.6109 25.7998C29.5143 25.8963 29.3834 25.9503 29.2469 25.9501H27.7585C27.498 26.2705 27.6022 26.722 27.7099 27.0102H31.1442C31.2606 26.8878 31.3179 26.6716 31.3448 26.4294C31.3448 26.3642 31.3509 26.2974 31.3569 26.2314C31.3646 25.9435 31.3389 25.6556 31.2805 25.3736L30.4808 24.3447C30.4155 24.2605 30.3777 24.1584 30.3722 24.0521L30.354 23.5632C30.3451 23.3876 30.4269 23.2196 30.5706 23.1181C30.7143 23.0167 30.9 22.9959 31.0626 23.0631L32.3512 23.5867C32.5194 23.6555 32.6389 23.808 32.6655 23.9878L32.7419 24.5027L33.4905 24.7284C33.7076 24.7939 33.8561 24.994 33.856 25.2207V25.4291C33.856 25.5656 33.8018 25.6965 33.7052 25.7929C33.6086 25.8893 33.4776 25.9434 33.3411 25.9431" fill="#ffffff"/>
<path d="M114.216 21.3838V21.3647C114.216 19.4103 115.652 17.679 117.789 17.679C118.991 17.679 119.734 18.0263 120.447 18.6262L119.926 19.234C119.375 18.7565 118.765 18.4196 117.755 18.4196C116.176 18.4196 115.046 19.7524 115.046 21.3413V21.3621C115.046 23.0622 116.135 24.3229 117.865 24.3229C118.611 24.3206 119.334 24.0701 119.922 23.6109V21.8397H117.751V21.1164H120.692V23.9574C119.902 24.658 118.883 25.0453 117.827 25.0462C115.587 25.0462 114.203 23.4182 114.203 21.3812" fill="#ffffff"/>
<path fill-rule="evenodd" clip-rule="evenodd" d="M123.336 21.3647V21.3838C123.336 23.3487 124.79 25.0488 126.961 25.0488C129.132 25.0488 130.608 23.3296 130.608 21.3647V21.3439C130.608 19.379 129.154 17.679 126.983 17.679C124.812 17.679 123.336 19.3999 123.336 21.3647ZM129.771 21.3642V21.3833C129.771 23.0035 128.609 24.3059 126.98 24.3059C125.351 24.3059 124.171 22.9827 124.171 21.3642V21.3434C124.171 19.7241 125.333 18.4217 126.961 18.4217C128.589 18.4217 129.771 19.7449 129.771 21.3642Z" fill="#ffffff"/>
<path fill-rule="evenodd" clip-rule="evenodd" d="M136.521 17.8009H133.488L133.489 24.9276H136.655C138.213 24.9276 139.24 24.2043 139.24 22.9836V22.9619C139.24 21.9851 138.559 21.4971 137.714 21.2427C138.273 20.997 138.842 20.5194 138.842 19.593V19.5722C138.85 19.146 138.685 18.735 138.385 18.4321C137.978 18.0353 137.336 17.8009 136.521 17.8009ZM138.027 19.6832C138.027 18.9808 137.468 18.5223 136.45 18.5223H134.279V20.976H136.387C137.354 20.976 138.025 20.5376 138.025 19.7032L138.027 19.6832ZM136.528 21.6898H134.278V24.2078H136.671C137.749 24.2078 138.421 23.7294 138.421 22.9358V22.9149C138.421 22.1413 137.77 21.6933 136.528 21.6933V21.6898Z" fill="#ffffff"/>
<rect x="142.111" y="17.8009" width="0.804086" height="7.12496" fill="#ffffff"/>
<path d="M146.172 17.8009H151.322V18.5337H146.975V20.9666H150.865V21.6994H146.975V24.193H151.373V24.9267H146.172V17.8009Z" fill="#ffffff"/>
<path fill-rule="evenodd" clip-rule="evenodd" d="M157.105 17.8009H154.041V24.9267H154.844V22.157H156.881L158.946 24.9267H159.934L157.746 22.0154C158.866 21.8114 159.68 21.1185 159.68 19.9386V19.9186C159.691 19.3956 159.493 18.8898 159.13 18.5129C158.682 18.0657 157.981 17.8009 157.105 17.8009ZM158.865 19.9693C158.865 20.8853 158.101 21.4349 157.033 21.4349H154.843V18.5445H157.042C158.193 18.5445 158.865 19.0741 158.865 19.9493V19.9693Z" fill="#ffffff"/>
<path d="M162.578 17.8009H163.331L167.821 23.5123V17.8009H168.604V24.9267H167.964L163.361 19.0833V24.9267H162.578V17.8009Z" fill="#ffffff"/>
<path fill-rule="evenodd" clip-rule="evenodd" d="M171.484 21.3647V21.3838H171.482C171.482 23.3487 172.936 25.0488 175.107 25.0488C177.278 25.0488 178.754 23.3296 178.754 21.3647V21.3439C178.754 19.379 177.302 17.679 175.131 17.679C172.96 17.679 171.484 19.3999 171.484 21.3647ZM177.919 21.3642V21.3833C177.919 23.0035 176.757 24.3059 175.128 24.3059C173.499 24.3059 172.32 22.9827 172.32 21.3642V21.3434C172.32 19.7241 173.481 18.4217 175.109 18.4217C176.737 18.4217 177.919 19.7449 177.919 21.3642Z" fill="#ffffff"/>
<path fill-rule="evenodd" clip-rule="evenodd" d="M187.812 17.8009H185.338V24.9241H187.812C190.05 24.9241 191.599 23.3682 191.599 21.3642V21.3434C191.599 19.3386 190.05 17.8009 187.812 17.8009ZM186.142 24.183V18.5445H187.812C189.614 18.5445 190.764 19.7861 190.764 21.3646V21.3837C190.764 22.9613 189.614 24.183 187.812 24.183H186.142Z" fill="#ffffff"/>
<path d="M194.154 17.8009H199.304V18.5337H194.958V20.9666H198.846V21.6994H194.958V24.193H199.356V24.9267H194.154V17.8009Z" fill="#ffffff"/>
<path d="M205.762 17.8009H206.565V24.1826H210.578V24.9267H205.762V17.8009Z" fill="#ffffff"/>
<path fill-rule="evenodd" clip-rule="evenodd" d="M216.266 17.7505H215.513L212.266 24.9258H213.091L213.935 23.0425H217.813L218.646 24.9275H219.515L216.266 17.7505ZM215.879 18.6885L217.498 22.3109H214.251L215.879 18.6885Z" fill="#ffffff"/>
<path d="M114.062 33.6V33.5801C114.062 31.5544 115.588 29.8943 117.777 29.8943C119.121 29.8943 119.925 30.3423 120.587 30.9935L119.589 32.144C119.04 31.6456 118.48 31.3399 117.766 31.3399C116.563 31.3399 115.699 32.3384 115.699 33.5601V33.5801C115.699 34.8008 116.544 35.8184 117.766 35.8184C118.579 35.8184 119.08 35.4937 119.638 34.984L120.636 35.9921C119.903 36.7735 119.089 37.2641 117.715 37.2641C115.617 37.2641 114.061 35.6457 114.061 33.6" fill="#ffffff"/>
<rect x="121.934" y="30.0181" width="1.56823" height="7.12496" fill="#ffffff"/>
<path d="M125.311 34.0902V30.0181H126.879V34.0503C126.879 35.2094 127.459 35.8102 128.416 35.8102C129.373 35.8102 129.953 35.2302 129.953 34.1006V30.0198H131.516V34.0416C131.516 36.1992 130.3 37.2542 128.39 37.2542C126.48 37.2542 125.307 36.1862 125.307 34.0885" fill="#ffffff"/>
<path fill-rule="evenodd" clip-rule="evenodd" d="M136.083 30.0181H133.305V37.1413H136.083C138.323 37.1413 139.871 35.5862 139.871 33.5814V33.5614C139.871 31.5558 138.323 30.0181 136.083 30.0181ZM138.231 33.601C138.231 34.86 137.366 35.7283 136.083 35.7283H134.872V31.433H136.083C137.363 31.433 138.231 32.3186 138.231 33.5811V33.601Z" fill="#ffffff"/>
<path fill-rule="evenodd" clip-rule="evenodd" d="M144.788 29.9659H143.342L140.285 37.1421H141.891L142.543 35.5445H145.549L146.2 37.1421H147.84L144.788 29.9659ZM144.043 31.8485L144.991 34.1589H143.097L144.043 31.8485Z" fill="#ffffff"/>
<path fill-rule="evenodd" clip-rule="evenodd" d="M151.757 30.0181H148.979V37.1413H151.757C153.997 37.1413 155.544 35.5862 155.544 33.5814V33.5614C155.544 31.5558 153.997 30.0181 151.757 30.0181ZM153.905 33.601C153.905 34.86 153.04 35.7283 151.757 35.7283H150.546V31.433H151.757C153.037 31.433 153.905 32.3186 153.905 33.5811V33.601Z" fill="#ffffff"/>
<path fill-rule="evenodd" clip-rule="evenodd" d="M162.872 30.0181H160.094V37.1413H162.872C165.113 37.1413 166.659 35.5862 166.659 33.5814V33.5614C166.659 31.5558 165.113 30.0181 162.872 30.0181ZM165.021 33.601C165.021 34.86 164.155 35.7283 162.873 35.7283H161.662V31.433H162.873C164.153 31.433 165.021 32.3186 165.021 33.5811V33.601Z" fill="#ffffff"/>
<path d="M168.148 30.0181H173.523V31.4134H169.705V32.859H173.064V34.2534H169.705V35.7495H173.574V37.143H168.148V30.0181Z" fill="#ffffff"/>
<path d="M178.123 30.0181H179.812L181.686 33.0318L183.558 30.0181H185.248V37.143H183.69V32.4909L181.686 35.5359H181.645L179.66 32.5221V37.143H178.123V30.0181Z" fill="#ffffff"/>
<path fill-rule="evenodd" clip-rule="evenodd" d="M191.435 28.2362L190.101 27.6544L188.951 29.4561H190.132L191.435 28.2362ZM192.493 30.017H187.119L187.123 37.142H192.55V35.7484H188.681V34.2515H192.04V32.858H188.677V31.4123H192.493V30.017Z" fill="#ffffff"/>
<path d="M196.035 33.5198L193.652 30.0181H195.485L196.981 32.3285L198.487 30.0181H200.27L197.888 33.4998L200.371 37.1439H198.539L196.941 34.7006L195.333 37.1439H193.551L196.035 33.5198Z" fill="#ffffff"/>
<rect x="201.574" y="30.0181" width="1.56823" height="7.12496" fill="#ffffff"/>
<path d="M204.658 33.6V33.5801C204.658 31.5544 206.185 29.8943 208.375 29.8943C209.717 29.8943 210.523 30.3423 211.185 30.9935L210.188 32.144C209.638 31.6456 209.078 31.3399 208.364 31.3399C207.163 31.3399 206.299 32.3384 206.299 33.5601V33.5801C206.299 34.8008 207.143 35.8184 208.364 35.8184C209.178 35.8184 209.678 35.4937 210.236 34.984L211.235 35.9921C210.501 36.7735 209.688 37.2641 208.314 37.2641C206.216 37.2641 204.658 35.6457 204.658 33.6Z" fill="#ffffff"/>
<path fill-rule="evenodd" clip-rule="evenodd" d="M211.975 33.5801V33.6C211.975 35.6257 213.552 37.2641 215.751 37.2641C217.95 37.2641 219.547 35.6057 219.547 33.5801V33.5601C219.547 31.5336 217.97 29.8943 215.771 29.8943C213.572 29.8943 211.975 31.5544 211.975 33.5801ZM217.909 33.5805V33.6004C217.909 34.8221 217.033 35.8188 215.77 35.8188C214.508 35.8188 213.614 34.8012 213.614 33.5805V33.5605C213.614 32.3388 214.489 31.3403 215.751 31.3403C217.012 31.3403 217.909 32.3579 217.909 33.5805Z" fill="#ffffff"/>
<path fill-rule="evenodd" clip-rule="evenodd" d="M83.454 51.4072C83.454 53.3877 81.8207 55.0001 79.8131 55.0001C77.8063 55.0001 76.1738 53.3877 76.1738 51.4072C76.1738 49.4267 77.8054 47.8143 79.8131 47.8143C81.8207 47.8143 83.454 49.4267 83.454 51.4072ZM81.6137 50.6534C81.3078 49.9323 80.5967 49.4672 79.8133 49.476C78.7532 49.4841 77.8991 50.3478 77.903 51.4079C77.903 52.1912 78.3761 52.897 79.1008 53.1947C79.8254 53.4924 80.6581 53.3231 81.2089 52.7661C81.7597 52.209 81.9196 51.3746 81.6137 50.6534Z" fill="#ffffff"/>
</svg>